<svg width="22" height="21" viewBox="0 0 22 21" fill="none" xmlns="http://www.w3.org/2000/svg">
<path d="M10.7011 17.125L5.51359 20.25C5.28443 20.3958 5.04484 20.4583 4.79484 20.4375C4.54484 20.4167 4.32609 20.3333 4.13859 20.1875C3.95109 20.0417 3.80526 19.8596 3.70109 19.6413C3.59693 19.4229 3.57609 19.1779 3.63859 18.9063L5.01359 13L0.419845 9.03125C0.211511 8.84375 0.0815114 8.63 0.0298447 8.39C-0.0218219 8.15 -0.00640533 7.91583 0.0760947 7.6875C0.158595 7.45917 0.283595 7.27167 0.451095 7.125C0.618595 6.97833 0.847761 6.88458 1.13859 6.84375L7.20109 6.3125L9.54484 0.75C9.64901 0.5 9.81068 0.3125 10.0298 0.1875C10.249 0.0624998 10.4728 0 10.7011 0C10.9294 0 11.1532 0.0624998 11.3723 0.1875C11.5915 0.3125 11.7532 0.5 11.8573 0.75L14.2011 6.3125L20.2636 6.84375C20.5553 6.88542 20.7844 6.97917 20.9511 7.125C21.1178 7.27083 21.2428 7.45833 21.3261 7.6875C21.4094 7.91667 21.4253 8.15125 21.3736 8.39125C21.3219 8.63125 21.1915 8.84458 20.9823 9.03125L16.3886 13L17.7636 18.9063C17.8261 19.1771 17.8053 19.4221 17.7011 19.6413C17.5969 19.8604 17.4511 20.0425 17.2636 20.1875C17.0761 20.3325 16.8573 20.4158 16.6073 20.4375C16.3573 20.4592 16.1178 20.3967 15.8886 20.25L10.7011 17.125Z" fill="#FC632D"/>
</svg>
